# xmcd
#
# Track frame offsets: 
#        150
#        15532
#        27886
#        44561
#        54100
#        64775
#        77408
#        89130
#        101150
#        112402
#        127029
#        141974
#        162256
#        174870
#        189236
#        198189
#        217992
#        227354
#
# Disc length: 3253 seconds
#
# Revision: 2
# Processed by: cddbd v1.5.2PL0 Copyright (c) Steve Scherf et al.
# Submitted via: ExactAudioCopy v1.0b6
#
DISCID=ef0cb312
DTITLE=Various Artist - The Essential Guide To Bluegrass [CD3]
DYEAR=2007
DGENRE=Bluegrass
TTITLE0=So Long, So Wrong - Alison Krauss
TTITLE1=Think About You Every Day - Dan Tyminski
TTITLE2=Down Home Summertime Blues - Norman Blake
TTITLE3=Lost And I'll Never Find The Way - Ricky Skaggs
TTITLE4=Ridin' The Red Line - Rhonda Vincent
TTITLE5=Leavin's Heavy On My Mind - The Grascals
TTITLE6=Love Light - Claire Lynch
TTITLE7=Black Mountain Rag - The Watson Brothers
TTITLE8=Love Me Or Leave Me Alone - Hazel Dickens
TTITLE9=Shape Of A Tear - The Lynn Morris Band
TTITLE10=Duncan and Brady (He's Been On The Job Too Long) - The Johnson 
TTITLE10=Mountain Boys
TTITLE11=Thirty Years Of Farming - James King
TTITLE12=I'll Stay Around - Alecia Nugent
TTITLE13=Carolina Star - Tony Rice
TTITLE14=North Carolina Breakdown - Michael Cleveland
TTITLE15=Lost At Sea - Bradley Walker
TTITLE16=Wild Fiddler's Rag - Mark O'Connor
TTITLE17=Don't Stop The Music - Del McCoury
EXTD=
EXTT0=
EXTT1=
EXTT2=
EXTT3=
EXTT4=
EXTT5=
EXTT6=
EXTT7=
EXTT8=
EXTT9=
EXTT10=
EXTT11=
EXTT12=
EXTT13=
EXTT14=
EXTT15=
EXTT16=
EXTT17=
PLAYORDER=
